<svg xmlns="http://www.w3.org/2000/svg" width="64" height="64" viewBox="0 0 349.908 349.909">
    <g fill="#ae3134">
        <path
            d="M326.028 223.54h-.006c-2.593 0-5.322-.167-8.184-.47-.69-.072-2.12-.132-2.79 1.02-9.572 17.917-25.66 28.55-44.772 28.55H79.634c-19.113 0-35.376-10.945-44.952-28.862-.523-.86-1.586-.816-2.116-.758-3.04.334-5.94.52-8.68.52-1.777 0-3.467-.083-5.075-.242-1.77-.176-3.9.026-3.9 1.276 7.295 29.128 28.767 48.297 55.52 48.297h209.052c26.754 0 48.83-19.292 56.128-48.417.3-1.623-1.234-1.59-2.142-1.453-2.326.352-4.8.54-7.44.54zM63.607 103.295c-.885-1.536-2.33-.822-3.172-.38C23.418 122.363 0 151.066 0 183.09c0 40.992 38.373 24.607 94.527 11.078.81-.195 2.174-1.136 1.543-3.013l-32.463-87.858zM189.025 79.28v102.75c0 1.376.95 1.52 1.43 1.548 21.7 1.337 42.265 5.26 60.966 9.646.855.2 2.532.475 3.265-.95l38.895-84.686c.79-1.475-.404-2.672-1.06-3.032C265.257 89.55 230.154 79.688 191.37 77.5c-.78-.044-2.345 0-2.345 1.78zM176.025 79.03c0-1.652-2.02-1.994-2.49-1.992-35.706.172-68.854 6.832-96.417 18.124-.772.316-2.084 1.348-1.514 3.095l33.604 90.945c.7 1.537 2.25 1.143 2.912 1.004 19.247-4.002 40.406-7.072 62.24-7.182.41-.002 1.666.006 1.666-1.12V79.032zM304.505 114.94c-10.647 19.907-37.227 81.003-37.227 81.003-.41.92.555 1.32 1.06 1.45 49.02 12.527 81.57 23.447 81.57-14.308 0-26.41-15.936-50.56-42.28-69.125-.67-.467-2.3-.554-3.123.98z" />
    </g>
</svg>