<svg xmlns="http://www.w3.org/2000/svg" width="64" height="64" viewBox="0 0 576.943 576.944">
    <g fill="#ae3134">
        <path
            d="M576.943 346.325c0-24.52-50.785-46.13-127.945-58.83l-19.537 14.71c48.76 8.012 79.82 20.108 79.82 33.63 0 5.565-5.308 10.882-14.89 15.778-31.977 16.342-112.082 27.932-205.91 27.932-93.827 0-173.94-11.59-205.918-27.932-9.582-4.896-14.89-10.213-14.89-15.778 0-11.207 21.354-21.43 56.41-29.165l-15.415-15.692C42.467 303.954.01 323.918.01 346.325c0 1.778.354 3.538.89 5.288H0l1.377 1.578c2.132 5.44 6.828 10.7 13.693 15.712l84.934 97.46h-3.978c-12.546 0-22.71 10.166-22.71 22.712v2.39c0 12.547 10.164 22.712 22.71 22.712H490.48c12.545 0 22.71-10.165 22.71-22.71v-2.392c0-12.546-10.165-22.71-22.71-22.71h-13.53l84.923-97.462c6.867-5.01 11.553-10.27 13.684-15.71l1.387-1.58h-.89c.526-1.75.89-3.51.89-5.287z" />
        <path
            d="M364.197 294.764l2.553 30.705 35.928-27.054 19.67-14.812 143.39-107.96L344.87 62.767l3.77 45.202 94.237 21.478c3.28.746 5.93 3.175 6.973 6.37 1.03 3.202.314 6.72-1.895 9.246l-87.86 100.444 2.696 32.397 1.407 16.86zM489.285 150.8c7.918 0 14.344 6.426 14.344 14.344s-6.427 14.344-14.345 14.344-14.344-6.426-14.344-14.344 6.427-14.344 14.345-14.344zm-23.906 47.813c10.565 0 19.124 8.56 19.124 19.125s-8.56 19.125-19.125 19.125-19.126-8.56-19.126-19.125 8.558-19.125 19.125-19.125z" />
        <path
            d="M233.9 293.473l17.355 47.41 42.62-48.73 14.39-16.447 32.093-36.69 8.76-10.013 8.76-10.012 65.12-74.453-72.704-16.572-9.78-2.228-9.784-2.228-79.54-18.13-37.62 132.63 14.314 39.082 6.015 16.38zm96.455-151.528c.564-.526 1.205-.918 1.816-1.358 2.813-2.037 6.007-3.223 9.296-3.547 3.3-.325 6.656.153 9.727 1.53 2.275 1.023 4.39 2.515 6.195 4.466 7.162 7.765 6.676 19.86-1.09 27.023-.736.678-1.53 1.213-2.334 1.76-2.85 1.92-6.053 2.963-9.332 3.183-3.338.23-6.693-.382-9.754-1.893-2.047-1.014-3.97-2.362-5.613-4.14-7.16-7.766-6.673-19.862 1.09-27.025zm-51.617 21.602c5.823-5.375 14.9-5 20.272.812 5.375 5.823 5.002 14.897-.812 20.27-5.824 5.375-14.898 5.002-20.272-.82-5.385-5.814-5.012-14.89.812-20.263zM224.05 99.19l-55.338 16.267-9.19 2.706-9.198 2.706-141.23 41.51 122.41 124.552 15.147 15.415 22.368 22.76 7.64-26.948 4.992-17.596 11.848-41.788 4.446-15.673 4.447-15.664 30.15-106.307 1.37-4.83-9.86 2.888zm-137.69 79.8c-7.116 0-12.872-5.766-12.872-12.87 0-7.105 5.766-12.87 12.87-12.87 7.115 0 12.872 5.765 12.872 12.87 0 7.104-5.766 12.87-12.87 12.87zm38.622 42.917c-9.476 0-17.165-7.688-17.165-17.165 0-9.476 7.688-17.165 17.165-17.165s17.165 7.688 17.165 17.165-7.69 17.165-17.165 17.165z" />
    </g>
</svg>