<svg xmlns="http://www.w3.org/2000/svg" width="64" height="64" viewBox="0 0 937.816 937.815">
    <g fill="#ae3134">
        <path
            d="M518.516 422.608h99c83-45.6 114.1-127.9 125-170.2 3.7-14.5-5.9-28.9-20.7-31-128.7-18.5-193.5 17.4-239 89.6 3.2 7.6 6.3 15.3 9.3 23.1 6.9 18.3 11.4 40 13.6 60.6 62.3-35.4 116.1-80.1 135.4-92.9-14.1 15.4-53 63-122.6 120.8zM.417 135.908c11.1 59.7 55.3 219.2 217.5 286.7h194.3c-61.4-111.9-172.4-166.9-222-197.3 37.8 6.9 154.7 47 261.3 158.1 8.2 8.6 24.9 26.7 25.4 26.5-12.1-175-174.3-316.9-345.8-316.9-34.9 0-72.2 4.5-112 14.1-12.9 3.1-21.1 15.8-18.7 28.8zM937.816 477.608c0-13.8-11.2-25-25-25h-770.7c-13.8 0-25 11.2-25 25v3c0 201.2 163.1 364.2 364.2 364.2h92.2c201.2 0 364.2-163.1 364.2-364.2v-3h.1z" />
    </g>
</svg>