<svg xmlns="http://www.w3.org/2000/svg" viewBox="0 0 486.796 486.796" width="64" height="64">
    <g fill="#ae3134">
        <path
            d="M49.332 171.472h12.981l-24.045-65.94L54.6 93.57l21.41 58.737 6.097 16.72.894 2.447h22.021l-16.817-46.12-6.096-16.714-6.097-16.72-1.975-5.438 1.975-.13 6.097-.407 6.096-.414 6.023-.408 13.413 36.8 6.095 16.71 2.406 6.593 3.69 10.136 2.408 6.586 3.47 9.526h12.982l-10.356-28.4V45.39l19.435 5.64v120.442h12.192V41.87l-8.795-2.552-13.85-4.016-17.486-4.836-2.128-.585-1.56.415-3.14.837-8.76 2.545-19.437 5.64-8.795 2.553v24.89l6.097-.528 6.096-.53v-14.67l19.436-5.642v40.935l-1.96-5.373-3.04-8.34-14.437 1.244-6.096.53-6.097.527-14.77 1.284-3.82.325-.21.017-9.82 7.192-16.323 11.966-7.388 5.405 3.136 8.6M366.127 45.3l-8.568-3.234-18.932-7.145-2.95-1.113-8.674-2.894-2.243-.748-1.42.268-7.44 1.374-4.673.967-19.817 4.105-8.966 1.852-.715 9.128-12.308 156.88-.48 6.146c2.187-.69 4.284-1.496 6.3-2.398 2.252-1.008 4.38-2.146 6.38-3.398l12.26-156.27 19.816-4.105-9.95 126.757h20.754l9.82-125.14 18.93 7.146-9.258 117.994h18.323l27.808-86.56 20.232.568-27.62 85.992H404.47l25.59-79.66 16.776 11.315-21.955 68.345h12.803l20.76-64.622 2.804-8.722-7.592-5.12-16.777-11.316-6.706-4.52-3.617-2.242-1.666-1.032-1.854-.09-7.78-.39-4.55-.13-20.233-.568-9.153-.26-2.804 8.714-20.11 62.614 7.015-89.366.707-9.12zM249.336 213.863c1.634 0 3.25-.065 4.845-.17 2.074-.147 4.098-.416 6.097-.75V12.428L220.147.845 217.226 0l-.78.236-40.122 11.99V171.473H188.518V20.94l19.435-5.642V197.67c1.805 1.944 3.837 3.756 6.096 5.407.772.57 1.577 1.114 2.398 1.642 1.187.763 2.414 1.487 3.7 2.16.787.424 1.576.846 2.397 1.228 1.943.91 3.99 1.7 6.096 2.406V15.298l19.434 5.64v192.884c.425.008.84.04 1.262.04z" />
        <path
            d="M435.074 179.6H307.52c-.49 6.032-2.505 11.74-5.74 16.9-2.682 4.292-6.243 8.17-10.453 11.575-2.073 1.674-4.284 3.243-6.674 4.65-2.666 1.577-5.495 3-8.494 4.21-4.927 1.984-10.267 3.423-15.892 4.252-2 .293-4.032.496-6.096.626-1.6.106-3.21.18-4.845.18-.423 0-.83-.042-1.252-.05-6.836-.114-13.372-1.13-19.435-2.918-2.09-.618-4.137-1.292-6.096-2.08-.82-.334-1.6-.716-2.398-1.074-1.26-.568-2.495-1.16-3.7-1.804-.812-.43-1.617-.862-2.397-1.325-2.163-1.275-4.187-2.68-6.097-4.177-9.64-7.543-15.908-17.68-16.81-28.97H35.548L95.73 486.796h307.203l60.184-307.203h-28.044v.008zm-37.367 85.53l-31.913 182.503h-35.067l32.823-187.697.09-.512.275-1.577 3.016-17.233 2.505-14.314h35.074l-3.31 18.907-2.43 13.924-1.063 6z" />
    </g>
</svg>