<svg xmlns="http://www.w3.org/2000/svg" viewBox="0 0 48.302 48.302" width="64" height="64">
    <g fill="#ae3134">
        <path
            d="M36.75 15.748c-1.46 0-2.856.108-4.142.304-1.088.166-1.947-.33-1.947-1.207v-1.59c0-2.506-5.17-4.537-11.55-4.537s-11.55 2.03-11.55 4.537v6.022c0 .924-.887 1.79-1.95 2.04C2.25 22.11 0 23.553 0 25.206v9.84c0 2.51 5.17 4.54 11.55 4.54s11.55-2.03 11.55-4.537v-6.023c0-.924.477-1.74 1.057-1.852s1.043.485 1.043 1.363v1.59c0 2.506 5.172 4.537 11.55 4.537 6.38 0 11.552-2.03 11.552-4.537v-9.84c0-2.506-5.172-4.538-11.55-4.538zm-25.2 13.526c-4.896 0-8.866-1.56-8.866-3.483s3.97-3.482 8.866-3.482 8.866 1.56 8.866 3.483-3.97 3.484-8.866 3.484zm7.56-11.95c-4.896 0-8.865-1.558-8.865-3.482 0-1.924 3.97-3.483 8.866-3.483s8.868 1.558 8.868 3.482c0 1.924-3.97 3.483-8.867 3.483zm17.642 7.03c-4.896 0-8.866-1.558-8.866-3.482s3.97-3.483 8.866-3.483 8.867 1.558 8.867 3.482-3.97 3.483-8.868 3.483z" />
        <path
            d="M16.472 24.34c-.688-.282-1.502-.084-1.91.435-.103.055-.275.117-.513.178-.042-.125-.104-.246-.185-.36-.488-.688-1.615-1.07-3.35-1.134-.958-.04-4.184-.045-5.012 1.377-.286.49-.258 1.042.077 1.513.76 1.067 2.892 1.364 4.548 1.426.102.004.338.01.667.01 1.612 0 5.435-.172 6.366-1.768.364-.625.057-1.375-.688-1.68z" />
        <ellipse cx="18.718" cy="13.538" rx="4.905" ry="1.651" />
        <ellipse cx="36.789" cy="20.677" rx="4.905" ry="1.651" />
    </g>
</svg>