<svg xmlns="http://www.w3.org/2000/svg" viewBox="0 0 269.941 269.941" width="64" height="64">
    <g fill="#ae3134">
        <path
            d="M70.256 70.354v187.888c-.022 8.95 4.253 11.732 11.754 11.7h126.246c7.977-.046 11.588-5.094 11.445-11.877V70.355H70.257zm61.024 33.57l15.2 26.9-26.898 15.2-15.2-26.888 26.898-15.21zm14.793 86.533l-30.89-.773.785-30.888 30.888.773-.783 30.887zm35.494-22.05l-25.63-17.255 17.256-25.63 25.63 17.256-17.256 25.63z" />
        <path
            d="M188.073 75.866l7.29-10.02 29.508-41.24 44.1-.01V9.773l-55.897.055-26.04 35.627-.01-.012-4.628 6.353-2.608 3.568h.012l-14.927 20.503M57.887.243C44.354 1.48 32.057 7.026 22.38 15.477l35.507 35.505V.242zm6.826 50.75l37.647-37.648C91.965 5.192 78.908.232 64.713 0v50.992zM17.487 20.248c-8.815 9.577-14.68 21.905-16.15 35.558h51.71l-35.56-35.56zM.97 62.636v.02c0 14.605 4.995 28.062 13.367 38.71l38.732-38.73H.97zm17.887 43.867c10.12 10.34 23.784 17.178 39.03 18.56V67.486l-39.03 39.018zm107.08-50.696c-1.603-14.813-8.353-28.06-18.438-37.935L69.55 55.808h56.384z" />
    </g>
</svg>