<svg xmlns="http://www.w3.org/2000/svg" width="64" height="64" viewBox="0 0 950 950">
    <g fill="#ae3134">
        <path
            d="M901.26 449.657c-16.71-43.48-35.012-91.496-64.4-128.276-22.215-27.802-63.87-51.88-100.745-46.25-.48.074-3.56.747-8.913 1.944 1.33 9.227 2.01 18.583 2.01 28.04 0 26.247-5.152 51.742-15.317 75.775-9.807 23.183-23.83 43.99-41.686 61.846-17.855 17.854-38.664 31.88-61.847 41.685-24.033 10.166-49.528 15.32-75.776 15.32s-51.742-5.154-75.775-15.32c-23.184-9.805-43.99-23.83-61.847-41.684-17.854-17.855-31.88-38.663-41.685-61.847-2.41-5.7-4.53-11.486-6.375-17.34-152.94 35.082-294.746 67.668-303.027 69.596-7.3 1.7-16.184 2.713-22.735 6.2-5.526 2.94-9.487 7.64-9.487 15.992v381.766c0 15.044 15.905 28.903 35.503 30.944l141.914 14.758 638.322 66.438c58.7 6.117 106.354-25.53 106.354-70.708 0-28.52-18.98-55.522-47.74-73.177 28.76-11.624 47.745-34.734 47.745-63.21 0-28.472-18.984-55.475-47.693-73.08 84.847-34.563 36.914-157.705 13.2-219.413zM714.38 875.212L88.654 810.058v-62.544L714.38 812.62c58.7 6.122 106.347 25.058 106.347 42.328 0 17.275-47.646 26.386-106.347 20.264zm0-124.66L88.654 685.395v-62.593l625.726 65.202c58.7 6.123 106.347 25.054 106.347 42.33 0 17.27-47.646 26.34-106.347 20.216zm0-124.662L88.654 560.78v-62.593l625.726 65.11c58.7 6.118 106.347 25.104 106.347 42.373 0 17.324-47.646 26.338-106.347 20.22z" />
        <path
            d="M399.96 305.114c0 15.768 2.72 30.9 7.7 44.96 18.507 52.242 68.342 89.667 126.925 89.667 74.353 0 134.626-60.273 134.626-134.625 0-4.97-.276-9.876-.802-14.708-7.328-67.432-64.44-119.918-133.823-119.918-7.086 0-14.042.55-20.832 1.605-4.607-9.426-9.713-18.638-15.216-27.62-5.547-9.054-11.493-17.874-17.715-26.45-7.626-10.513-15.666-20.66-23.91-30.413-15.332-18.135-31.973-35.302-50.264-50.478C390.63 23.844 373.6 11.04 354.462 2.57c-10.823-4.79-23.232-3.263-29.708 7.79-5.47 9.34-3.04 24.918 7.79 29.71 8.982 3.975 17.517 8.928 25.643 14.435 2.348 1.59 4.677 3.21 6.968 4.88.835.61 3.828 2.893 4.616 3.474 3.472 2.747 6.903 5.544 10.254 8.44 8.84 7.637 17.34 15.67 25.455 24.074 8.544 8.847 16.76 18.018 24.545 27.54 2.212 2.707 4.407 5.428 6.557 8.185l.015.016.257.34c.905 1.195 1.812 2.39 2.707 3.594.033.045.065.09.1.134 3.532 4.762 6.995 9.577 10.327 14.483 2.328 3.427 4.607 6.888 6.84 10.38 4.35 6.812 8.503 13.752 12.368 20.852.914 1.678 1.812 3.365 2.7 5.057-42.773 22.55-71.935 67.444-71.935 119.157z" />
    </g>
</svg>