<svg xmlns="http://www.w3.org/2000/svg" viewBox="0 0 30.046 30.046" width="64" height="64">
    <g fill="#ae3134">
        <path
            d="M28.55.938c-.428-.35-1.06-.287-1.41.14l-8.425 10.297c.23.19.446.398.65.615l9.27-9.58c.02-.02.038-.042.055-.063.35-.428.288-1.06-.14-1.41zM24.456 1.575l.045-.07c.28-.478.118-1.09-.36-1.37-.477-.278-1.09-.116-1.37.36l-5.742 9.852c.327.14.638.31.937.497l6.49-9.27zM10.89 7.372c1.835 0 3.425 1 4.3 2.47.44.06.87.158 1.28.295-.896-2.205-3.058-3.766-5.58-3.766-2.522 0-4.685 1.562-5.58 3.767.413-.137.84-.235 1.28-.295.876-1.472 2.467-2.47 4.3-2.47z" />
        <path
            d="M10.89 8.382c-1.21 0-2.286.55-3.022 1.403.434.02.86.075 1.27.17.495-.357 1.098-.573 1.753-.573.657 0 1.26.216 1.754.573.41-.095.835-.15 1.27-.17-.737-.852-1.81-1.403-3.023-1.403zM1.366 17.992c-.15.682-.237 1.388-.237 2.116 0 3.48 1.824 6.524 4.564 8.253v.463c0 .676.548 1.224 1.224 1.224h8.09c.452 0 1.08-.484 1.08-1.224v-.462c2.74-1.728 4.565-4.773 4.565-8.252 0-.727-.085-1.434-.236-2.116H1.367zM19.752 16.848h.558c0-3.352-2.727-6.08-6.078-6.08-.84 0-1.64.172-2.367.48.338.262.65.553.937.87.456-.14.93-.235 1.43-.235 2.738 0 4.965 2.228 4.965 4.965h.555z" />
        <path
            d="M17.187 16.848H18.3c0-2.244-1.825-4.07-4.068-4.07-.286 0-.564.032-.834.088.226.33.42.684.587 1.05.083-.006.162-.024.247-.024 1.63 0 2.955 1.326 2.955 2.956z" />
        <path
            d="M14.573 16.003c.334.136.573.462.573.844h1.113c0-1.083-.857-1.963-1.928-2.016.112.38.192.772.24 1.173zM2.585 16.848c0-2.737 2.228-4.965 4.965-4.965 2.738 0 4.964 2.228 4.964 4.965h1.115c0-3.352-2.726-6.08-6.078-6.08-3.352 0-6.08 2.728-6.08 6.08H2.586z" />
        <path
            d="M10.505 16.848h1.114c0-2.244-1.826-4.07-4.07-4.07-2.243 0-4.068 1.826-4.068 4.07h1.114c0-1.63 1.326-2.955 2.956-2.955s2.953 1.325 2.953 2.955z" />
        <path
            d="M5.523 16.848h1.114c0-.503.41-.913.914-.913.505 0 .915.41.915.913h1.112c0-1.118-.91-2.026-2.026-2.026s-2.027.908-2.027 2.026z" />
    </g>
</svg>