<svg xmlns="http://www.w3.org/2000/svg" viewBox="0 0 476.691 476.691" width="64" height="64">
    <g fill="#ae3134">
        <path
            d="M76.473 375.83c-28.393 10.625-45.406 24.094-45.406 38.766 0 34.294 92.804 62.094 207.28 62.094s207.278-27.8 207.278-62.094c0-14.672-17.013-28.14-45.406-38.765-9.65 8.86-20.038 16.908-31.036 24.11 17.728 4.788 30.604 10.04 38.23 14.656-20.583 12.453-79.263 29.58-169.067 29.58S89.862 427.04 69.28 414.596c7.626-4.61 20.51-9.868 38.23-14.656-11-7.2-21.388-15.248-31.037-24.11z" />
        <path
            d="M6.917 199.417c0 69.028 30.255 130.96 78.19 173.358 10.265 9.088 21.32 17.306 33.09 24.475 35.026 21.313 76.148 33.595 120.148 33.595s85.122-12.282 120.148-33.595c11.77-7.16 22.825-15.387 33.09-24.475 47.935-42.4 78.19-104.33 78.19-173.358H6.917zM124.448 3.94c-21.728 16.258-30.084 38.05-19.51 63.9 5.878 14.355 36.702 48.836 23.525 63.24-17.655 19.29 11.014 48.113 28.743 28.743 17.582-19.216 19.062-42 8.202-65.183-5.292-11.282-34.278-45.252-20.443-55.6 20.72-15.5.495-50.812-20.517-35.1zM221.99 3.94c-21.727 16.258-30.083 38.05-19.508 63.9 5.877 14.355 36.7 48.836 23.524 63.24-17.655 19.29 11.014 48.113 28.743 28.743 17.58-19.216 19.06-42 8.2-65.183-5.29-11.282-34.277-45.252-20.442-55.6 20.72-15.5.495-50.812-20.517-35.1zM319.534 3.94c-21.728 16.258-30.084 38.05-19.51 63.9 5.878 14.355 36.702 48.836 23.525 63.24-17.656 19.29 11.013 48.113 28.742 28.743 17.582-19.216 19.06-42 8.202-65.183-5.292-11.282-34.278-45.252-20.443-55.6 20.72-15.5.496-50.812-20.516-35.1z" />
    </g>
</svg>